<svg preserveAspectRatio="none" width="100%" height="100%" overflow="visible" style="display: block;" viewBox="0 0 14.4819 13.93" fill="none" xmlns="http://www.w3.org/2000/svg">
<g id="Group">
<path id="Vector" d="M1.90762 4.02167H1.24096M13.241 4.02167H12.5743M7.24096 0.688333V2.02167M6.24096 2.02167H8.24096M3.24096 8.68833H5.24096M9.24096 8.68833H11.241M9.58096 0.575H4.90096C3.24096 0.575 2.87429 1.40167 2.66096 2.415L1.90762 6.02167H12.5743L11.821 2.415C11.6076 1.40167 11.241 0.575 9.58096 0.575ZM13.901 11.9017C13.9743 12.6817 13.3476 13.355 12.5476 13.355H11.2943C10.5743 13.355 10.4743 13.0483 10.3476 12.6683L10.2143 12.2683C10.0276 11.7217 9.90762 11.355 8.94762 11.355H5.53429C4.57429 11.355 4.43429 11.7683 4.26762 12.2683L4.13429 12.6683C4.00762 13.0483 3.90762 13.355 3.18762 13.355H1.93429C1.13429 13.355 0.507622 12.6817 0.580955 11.9017L0.954289 7.84167C1.04762 6.84167 1.24096 6.02167 2.98762 6.02167H11.4943C13.241 6.02167 13.4343 6.84167 13.5276 7.84167L13.901 11.9017Z" stroke="var(--stroke-0, #F7F7F7)" stroke-width="1.15" stroke-linecap="round" stroke-linejoin="round"/>
</g>
</svg>
