<svg preserveAspectRatio="none" width="100%" height="100%" overflow="visible" style="display: block;" viewBox="0 0 59.9994 60.0019" fill="none" xmlns="http://www.w3.org/2000/svg">
<g id="Group">
<path id="Vector" opacity="0.4" d="M49.4094 44.49L50.5794 53.97C50.8794 56.46 48.2094 58.2 46.0794 56.91L33.5094 49.44C32.1294 49.44 30.7797 49.35 29.4597 49.17C31.6797 46.56 32.9994 43.26 32.9994 39.69C32.9994 31.17 25.6194 24.27 16.4995 24.27C13.0195 24.27 9.80955 25.26 7.13955 27C7.04955 26.25 7.01952 25.5 7.01952 24.72C7.01952 11.07 18.8695 0 33.5094 0C48.1494 0 59.9994 11.07 59.9994 24.72C59.9994 32.82 55.8294 39.99 49.4094 44.49Z" fill="var(--fill-0, #FF928F)"/>
<path id="Vector_2" d="M33 39.6894C33 43.2594 31.68 46.5594 29.46 49.1694C26.49 52.7694 21.78 55.0794 16.5 55.0794L8.67 59.7294C7.35 60.5394 5.67 59.4294 5.85 57.8994L6.6 51.9894C2.58 49.1994 0 44.7294 0 39.6894C0 34.4094 2.82 29.7594 7.14 26.9994C9.81 25.2594 13.02 24.2694 16.5 24.2694C25.62 24.2694 33 31.1694 33 39.6894Z" fill="var(--fill-0, #FF928F)"/>
</g>
</svg>
