<svg preserveAspectRatio="none" width="100%" height="100%" overflow="visible" style="display: block;" viewBox="0 0 16 13.6" fill="none" xmlns="http://www.w3.org/2000/svg">
<g id="Group">
<path id="Vector" d="M3.8 0H12.2C13.37 0 14.3267 0.91336 14.396 2.06598L14.4 2.2L14.4005 4.88296C15.2774 5.1312 15.9318 5.90976 15.995 6.85024L16 7V13C16 13.3314 15.7314 13.6 15.4 13.6C15.0962 13.6 14.8452 13.3742 14.8054 13.0814L14.8 13V11.2H1.2V13C1.2 13.3038 0.97428 13.5548 0.681416 13.5946L0.6 13.6C0.29624 13.6 0.045208 13.3742 0.00548 13.0814L0 13V7C0 5.99288 0.676768 5.14376 1.60035 4.88272L1.6 2.2C1.6 1.02998 2.51336 0.0732801 3.66598 0.00401611L3.8 0ZM13.8 6H2.2C1.68223 6 1.25638 6.39352 1.20516 6.89776L1.2 7V10H14.8V7C14.8 6.48224 14.4065 6.0564 13.9022 6.0052L13.8 6ZM12.2 1.2H3.8C3.28223 1.2 2.85638 1.5935 2.80516 2.09775L2.8 2.2V4.8H4C4 4.35818 4.35818 4 4.8 4H6.4C6.81024 4 7.1484 4.30883 7.19464 4.7067L7.2 4.8H8.8C8.8 4.35818 9.15816 4 9.6 4H11.2C11.6102 4 11.9484 4.30883 11.9946 4.7067L12 4.8H13.2V2.2C13.2 1.68223 12.8065 1.25638 12.3022 1.20516L12.2 1.2Z" fill="var(--fill-0, #F7F7F7)"/>
</g>
</svg>
