<svg width="22" height="20" viewBox="0 0 22 20" fill="none" xmlns="http://www.w3.org/2000/svg">
<path opacity="0.32" d="M8 0C5.19974 0 3.79961 5.96046e-08 2.73005 0.54497C1.78924 1.02433 1.02433 1.78924 0.54497 2.73005C5.96046e-08 3.79961 0 5.19974 0 8V11.5C0 14.3003 5.96046e-08 15.7004 0.54497 16.77C1.02433 17.7108 1.78924 18.4757 2.73005 18.955C3.79961 19.5 5.19974 19.5 8 19.5H13.5C16.3003 19.5 17.7004 19.5 18.77 18.955C19.7108 18.4757 20.4757 17.7108 20.955 16.77C21.5 15.7004 21.5 14.3003 21.5 11.5V8C21.5 5.19974 21.5 3.79961 20.955 2.73005C20.4757 1.78924 19.7108 1.02433 18.77 0.54497C17.7004 5.96046e-08 16.3003 0 13.5 0H8Z" fill="#FF928F"/>
<path fill-rule="evenodd" clip-rule="evenodd" d="M4.12592 5.33405C4.35568 4.98941 4.82134 4.89628 5.16598 5.12604L6.16598 5.79271C7.81626 6.89289 8.5133 7.3482 9.2354 7.56577C10.2232 7.8634 11.2767 7.8634 12.2645 7.56577C12.9866 7.3482 13.6837 6.89289 15.3339 5.79271L16.3339 5.12604C16.6786 4.89628 17.1442 4.98941 17.374 5.33405C17.6038 5.6787 17.5106 6.14435 17.166 6.37412L16.166 7.04078C16.1268 7.06691 16.088 7.09277 16.0496 7.11837C14.5513 8.1175 13.6597 8.712 12.6972 9.002C11.4272 9.3846 10.0727 9.3846 8.8027 9.002C7.84022 8.712 6.94859 8.1175 5.4503 7.11837C5.41191 7.09278 5.37313 7.06691 5.33393 7.04078L4.33393 6.37412C3.98929 6.14435 3.89616 5.6787 4.12592 5.33405Z" fill="#FF928F"/>
</svg>
