<svg width="24" height="24" viewBox="0 0 24 24" fill="none" xmlns="http://www.w3.org/2000/svg">
<path opacity="0.4" d="M14 1.25C11.1005 1.25 8.75 3.60051 8.75 6.5V9.25H7C6.58579 9.25 6.25 9.58579 6.25 10V14C6.25 14.4142 6.58579 14.75 7 14.75H8.75V22C8.75 22.4142 9.08579 22.75 9.5 22.75H13.5C13.9142 22.75 14.25 22.4142 14.25 22V14.75H16.5C16.8442 14.75 17.1441 14.5158 17.2276 14.1819L18.2276 10.1819C18.2836 9.95785 18.2333 9.72048 18.0912 9.53844C17.949 9.3564 17.731 9.25 17.5 9.25H14.25V7.75C14.25 7.19772 14.6977 6.75 15.25 6.75H17.5C17.9142 6.75 18.25 6.41421 18.25 6V2C18.25 1.58579 17.9142 1.25 17.5 1.25H14Z" fill="#FF928F"/>
<path d="M12.5718 1.46094C10.3921 2.09942 8.80029 4.11375 8.80029 6.49989V7.74989C8.80029 7.19761 9.248 6.74989 9.80029 6.74989H12.0502C12.4645 6.74989 12.8002 6.41411 12.8002 5.99989V1.99989C12.8002 1.78836 12.7127 1.59729 12.5718 1.46094Z" fill="#FF928F"/>
</svg>
