<svg preserveAspectRatio="none" width="100%" height="100%" overflow="visible" style="display: block;" viewBox="0 0 59.9703 59.9931" fill="none" xmlns="http://www.w3.org/2000/svg">
<g id="Group">
<path id="Vector" opacity="0.4" d="M54.09 14.4532L36.84 2.36322C32.13 -0.936778 24.93 -0.756779 20.4 2.75322L5.37 14.4832C2.34 16.8232 0 21.6232 0 25.4031V46.1031C0 53.7531 6.21 59.9931 13.83 59.9931H46.14C53.76 59.9931 59.97 53.7831 59.97 46.1331V25.7931C60 21.7432 57.39 16.7632 54.09 14.4532Z" fill="var(--fill-0, #FF928F)"/>
<path id="Vector_2" d="M34.1982 19.5234H25.7982C20.0381 19.5234 15.3281 24.2034 15.3281 29.9934V38.3634C15.3281 44.1234 20.0381 48.8334 25.7982 48.8334H34.1682C39.9282 48.8334 44.6382 44.1534 44.6382 38.3634V29.9934C44.6382 24.2334 39.9582 19.5234 34.1982 19.5234ZM40.4682 29.9934V32.0934H32.0982V23.7234H34.1982C37.6482 23.7234 40.4682 26.5434 40.4682 29.9934ZM25.7982 23.7234H27.8982V32.0934H19.5281V29.9934C19.5281 26.5434 22.3481 23.7234 25.7982 23.7234ZM19.5281 38.3634V36.2634H27.8982V44.6334H25.7982C22.3481 44.6334 19.5281 41.8134 19.5281 38.3634ZM34.1982 44.6334H32.0982V36.2634H40.4682V38.3634C40.4682 41.8134 37.6482 44.6334 34.1982 44.6334Z" fill="var(--fill-0, #FF928F)"/>
</g>
</svg>
