<svg preserveAspectRatio="none" width="100%" height="100%" overflow="visible" style="display: block;" viewBox="0 0 23.5 19.7494" fill="none" xmlns="http://www.w3.org/2000/svg">
<g id="Group">
<path id="Vector" opacity="0.4" d="M1.84961 18.99V3.02002C1.84961 1.01002 2.84966 0 4.83966 0H11.0696C13.0596 0 14.0496 1.01002 14.0496 3.02002V18.99" fill="var(--fill-0, #E73C38)"/>
<path id="Vector_2" d="M10.5008 5.98828H5.55078C5.14078 5.98828 4.80078 5.64828 4.80078 5.23828C4.80078 4.82828 5.14078 4.48828 5.55078 4.48828H10.5008C10.9108 4.48828 11.2508 4.82828 11.2508 5.23828C11.2508 5.64828 10.9108 5.98828 10.5008 5.98828Z" fill="var(--fill-0, #E73C38)"/>
<path id="Vector_3" d="M10.5008 9.73828H5.55078C5.14078 9.73828 4.80078 9.39828 4.80078 8.98828C4.80078 8.57828 5.14078 8.23828 5.55078 8.23828H10.5008C10.9108 8.23828 11.2508 8.57828 11.2508 8.98828C11.2508 9.39828 10.9108 9.73828 10.5008 9.73828Z" fill="var(--fill-0, #E73C38)"/>
<path id="Vector_4" d="M8 19.7383C7.59 19.7383 7.25 19.3983 7.25 18.9883V15.2383C7.25 14.8283 7.59 14.4883 8 14.4883C8.41 14.4883 8.75 14.8283 8.75 15.2383V18.9883C8.75 19.3983 8.41 19.7383 8 19.7383Z" fill="var(--fill-0, #E73C38)"/>
<path id="Vector_5" d="M22.75 18.2394H20.48V15.2394C21.43 14.9294 22.12 14.0394 22.12 12.9894V10.9894C22.12 9.67938 21.05 8.60938 19.74 8.60938C18.43 8.60938 17.36 9.67938 17.36 10.9894V12.9894C17.36 14.0294 18.04 14.9094 18.97 15.2294V18.2394H0.75C0.34 18.2394 0 18.5794 0 18.9894C0 19.3994 0.34 19.7394 0.75 19.7394H19.68C19.7 19.7394 19.71 19.7494 19.73 19.7494C19.75 19.7494 19.76 19.7394 19.78 19.7394H22.75C23.16 19.7394 23.5 19.3994 23.5 18.9894C23.5 18.5794 23.16 18.2394 22.75 18.2394Z" fill="var(--fill-0, #E73C38)"/>
</g>
</svg>
