<svg preserveAspectRatio="none" width="100%" height="100%" overflow="visible" style="display: block;" viewBox="0 0 119 50" fill="none" xmlns="http://www.w3.org/2000/svg">
<g id="product_logo">
<path d="M2.43181 49.611C1.97952 49.3521 1.62561 48.9971 1.36716 48.5475C1.11017 48.0978 0.980947 47.6052 0.980947 47.0683C0.980947 46.5314 1.11017 46.0492 1.36716 45.6025C1.62414 45.1558 1.97952 44.8037 2.43181 44.5434C2.8841 44.2845 3.38779 44.1544 3.94288 44.1544C4.30119 44.1544 4.64481 44.2121 4.97228 44.3289C5.29976 44.4458 5.58758 44.6085 5.83722 44.8185L5.2557 45.5004C4.89152 45.2149 4.47741 45.0714 4.01336 45.0714C3.63743 45.0714 3.29674 45.1617 2.99277 45.3421C2.68879 45.5226 2.45237 45.7652 2.28496 46.0684C2.11755 46.3716 2.03238 46.7044 2.03238 47.0653C2.03238 47.4263 2.11608 47.762 2.28496 48.0712C2.45237 48.3803 2.68292 48.6259 2.97515 48.8063C3.26738 48.9868 3.59338 49.077 3.95169 49.077C4.22336 49.077 4.48181 49.0282 4.72411 48.932C4.96788 48.8359 5.18081 48.6969 5.36731 48.5164L5.98407 49.216C5.71827 49.4616 5.40989 49.6524 5.05892 49.7885C4.70796 49.926 4.33643 49.9941 3.94288 49.9941C3.38632 49.9941 2.88263 49.8639 2.43181 49.6051V49.611Z" fill="var(--fill-0, white)"/>
<path d="M9.46878 49.611C9.01649 49.3521 8.66258 48.9986 8.40413 48.5519C8.14715 48.1052 8.01792 47.6141 8.01792 47.0772C8.01792 46.5402 8.14715 46.0492 8.40413 45.6025C8.66111 45.1558 9.01649 44.8037 9.46878 44.5434C9.92107 44.2845 10.4248 44.1544 10.9798 44.1544C11.5349 44.1544 12.0401 44.2845 12.4909 44.5434C12.9432 44.8022 13.2971 45.1558 13.5556 45.6025C13.8126 46.0492 13.9418 46.5402 13.9418 47.0772C13.9418 47.6141 13.8126 48.1052 13.5556 48.5519C13.2986 48.9986 12.9432 49.3506 12.4909 49.611C12.0386 49.8698 11.5349 50 10.9798 50C10.4248 50 9.9196 49.8698 9.46878 49.611ZM11.952 48.8108C12.2413 48.6303 12.4704 48.3862 12.6378 48.08C12.8052 47.7739 12.8903 47.4396 12.8903 47.0787C12.8903 46.7177 12.8066 46.3835 12.6378 46.0773C12.4704 45.7711 12.2413 45.527 11.952 45.3466C11.6627 45.1661 11.3411 45.0759 10.9872 45.0759C10.6333 45.0759 10.3029 45.1661 10.0107 45.3466C9.71842 45.527 9.48787 45.7711 9.32046 46.0773C9.15306 46.3835 9.06788 46.7177 9.06788 47.0787C9.06788 47.4396 9.15159 47.7739 9.32046 48.08C9.48787 48.3862 9.71842 48.6303 10.0107 48.8108C10.3029 48.9912 10.6289 49.0814 10.9872 49.0814C11.3455 49.0814 11.6612 48.9912 11.952 48.8108Z" fill="var(--fill-0, white)"/>
<path d="M17.5117 44.2431L19.5264 47.0254C19.6938 47.2532 19.8671 47.5106 20.0433 47.8005C20.2195 48.0889 20.3341 48.2768 20.387 48.3655V44.2446H21.3943V49.9142H20.3517L18.4324 47.2724C18.2297 46.9929 18.0359 46.703 17.8509 46.4056C17.6659 46.1083 17.5469 45.916 17.494 45.8288V49.9142H16.4867V44.2446H17.5117V44.2431Z" fill="var(--fill-0, white)"/>
<path d="M26.3637 44.2431C26.9599 44.2431 27.4841 44.3703 27.9364 44.6233C28.3887 44.8777 28.7367 45.2194 28.9835 45.6513C29.2302 46.0832 29.352 46.558 29.352 47.0772C29.352 47.5964 29.2287 48.0712 28.9835 48.5031C28.7367 48.935 28.3887 49.2767 27.9364 49.5311C27.4841 49.7855 26.9599 49.9112 26.3637 49.9112H24.158V44.2416H26.3637V44.2431ZM27.3534 48.7841C27.6545 48.6155 27.888 48.3818 28.0524 48.0845C28.2169 47.7872 28.3006 47.4514 28.3006 47.0787C28.3006 46.7059 28.2184 46.3701 28.0524 46.0728C27.8865 45.7755 27.6545 45.5418 27.3534 45.3732C27.0524 45.2046 26.7073 45.1188 26.3196 45.1188H25.1639V49.0385H26.3196C26.7073 49.0385 27.0524 48.9542 27.3534 48.7841Z" fill="var(--fill-0, white)"/>
<path d="M33.1304 49.611C32.6782 49.3521 32.3243 48.9986 32.0658 48.5519C31.8088 48.1052 31.6796 47.6141 31.6796 47.0772C31.6796 46.5402 31.8088 46.0492 32.0658 45.6025C32.3228 45.1558 32.6782 44.8037 33.1304 44.5434C33.5827 44.2845 34.0864 44.1544 34.6415 44.1544C35.1966 44.1544 35.7018 44.2845 36.1526 44.5434C36.6049 44.8022 36.9588 45.1558 37.2172 45.6025C37.4742 46.0492 37.6035 46.5402 37.6035 47.0772C37.6035 47.6141 37.4742 48.1052 37.2172 48.5519C36.9603 48.9986 36.6049 49.3506 36.1526 49.611C35.7003 49.8698 35.1966 50 34.6415 50C34.0864 50 33.5813 49.8698 33.1304 49.611ZM35.6151 48.8108C35.9044 48.6303 36.1335 48.3862 36.3009 48.08C36.4683 47.7739 36.5535 47.4396 36.5535 47.0787C36.5535 46.7177 36.4698 46.3835 36.3009 46.0773C36.1335 45.7711 35.9044 45.527 35.6151 45.3466C35.3258 45.1661 35.0042 45.0759 34.6503 45.0759C34.2964 45.0759 33.966 45.1661 33.6738 45.3466C33.3816 45.527 33.151 45.7711 32.9836 46.0773C32.8162 46.3835 32.731 46.7177 32.731 47.0787C32.731 47.4396 32.8147 47.7739 32.9836 48.08C33.151 48.3862 33.3816 48.6303 33.6738 48.8108C33.966 48.9912 34.292 49.0814 34.6503 49.0814C35.0086 49.0814 35.3244 48.9912 35.6151 48.8108Z" fill="var(--fill-0, white)"/>
<path d="M41.0265 44.2431L41.8077 45.3451C42.0559 45.6897 42.3085 46.0432 42.564 46.4086C42.818 46.7725 42.9928 47.0254 43.0853 47.1659L44.3541 45.3554L45.1353 44.2446H46.012V49.9142H45.0046V45.9767C44.9811 46.0181 44.9238 46.1142 44.8313 46.2651C44.7388 46.4175 44.6169 46.6038 44.4671 46.8257L43.0853 48.8211L41.6873 46.808C41.5419 46.5979 41.4244 46.4175 41.3305 46.2651C41.2379 46.1142 41.1792 46.0181 41.1572 45.9767V49.9142H40.1498V44.2446H41.0265V44.2431Z" fill="var(--fill-0, white)"/>
<path d="M50.5026 42.5643L49.5995 43.8511H48.739L49.5129 42.5643H50.5026ZM49.7816 44.2431V49.9127H48.7742V44.2431H49.7816Z" fill="var(--fill-0, white)"/>
<path d="M53.5688 44.2431L55.5836 47.0254C55.751 47.2532 55.9242 47.5106 56.1005 47.8005C56.2767 48.0889 56.3912 48.2768 56.4441 48.3655V44.2446H57.4515V49.9142H56.4088L54.4895 47.2724C54.2869 46.9929 54.093 46.703 53.908 46.4056C53.723 46.1083 53.604 45.916 53.5512 45.8288V49.9142H52.5438V44.2446H53.5688V44.2431Z" fill="var(--fill-0, white)"/>
<path d="M61.2225 44.2431V49.9127H60.2151V44.2431H61.2225Z" fill="var(--fill-0, white)"/>
<path d="M65.2183 49.611C64.766 49.3521 64.4121 48.9986 64.1536 48.5519C63.8952 48.1052 63.7674 47.6141 63.7674 47.0772C63.7674 46.5402 63.8966 46.0492 64.1536 45.6025C64.4106 45.1558 64.766 44.8037 65.2183 44.5434C65.6706 44.2845 66.1743 44.1544 66.7294 44.1544C67.2844 44.1544 67.7896 44.2845 68.2404 44.5434C68.6912 44.8022 69.0466 45.1558 69.3051 45.6025C69.5621 46.0492 69.6913 46.5402 69.6913 47.0772C69.6913 47.6141 69.5621 48.1052 69.3051 48.5519C69.0466 48.9986 68.6927 49.3506 68.2404 49.611C67.7881 49.8713 67.2844 50 66.7294 50C66.1743 50 65.6691 49.8698 65.2183 49.611ZM67.703 48.8108C67.9922 48.6303 68.2213 48.3862 68.3887 48.08C68.5561 47.7739 68.6413 47.4396 68.6413 47.0787C68.6413 46.7177 68.5576 46.3835 68.3887 46.0773C68.2213 45.7711 67.9922 45.527 67.703 45.3466C67.4137 45.1661 67.0921 45.0759 66.7382 45.0759C66.3843 45.0759 66.0538 45.1661 65.7616 45.3466C65.4694 45.527 65.2388 45.7711 65.0714 46.0773C64.904 46.3835 64.8189 46.7177 64.8189 47.0787C64.8189 47.4396 64.9026 47.7739 65.0714 48.08C65.2388 48.3862 65.4694 48.6303 65.7616 48.8108C66.0538 48.9912 66.3799 49.0814 66.7382 49.0814C67.0965 49.0814 67.4122 48.9912 67.703 48.8108Z" fill="var(--fill-0, white)"/>
<path d="M76.9368 49.611C76.4845 49.3521 76.1306 48.9971 75.8721 48.5475C75.6137 48.0978 75.4859 47.6052 75.4859 47.0683C75.4859 46.5314 75.6151 46.0492 75.8721 45.6025C76.1291 45.1558 76.4845 44.8037 76.9368 44.5434C77.3891 44.2845 77.8928 44.1544 78.4478 44.1544C78.8062 44.1544 79.1498 44.2121 79.4772 44.3289C79.8047 44.4458 80.0925 44.6085 80.3422 44.8185L79.7607 45.5004C79.3965 45.2149 78.9824 45.0714 78.5183 45.0714C78.1424 45.0714 77.8017 45.1617 77.4977 45.3421C77.1938 45.5226 76.9573 45.7652 76.7899 46.0684C76.6225 46.3716 76.5373 46.7044 76.5373 47.0653C76.5373 47.4263 76.621 47.762 76.7899 48.0712C76.9573 48.3803 77.1879 48.6259 77.4801 48.8063C77.7723 48.9868 78.0983 49.077 78.4567 49.077C78.7283 49.077 78.9868 49.0282 79.2291 48.932C79.4714 48.8359 79.6858 48.6969 79.8723 48.5164L80.489 49.216C80.2232 49.4616 79.9149 49.6524 79.5639 49.7885C79.2129 49.926 78.8414 49.9941 78.4478 49.9941C77.8913 49.9941 77.3876 49.8639 76.9368 49.6051V49.611Z" fill="var(--fill-0, white)"/>
<path d="M83.7814 44.2431V49.0385H87.1515V49.9127H82.774V44.2431H83.7814Z" fill="var(--fill-0, white)"/>
<path d="M90.5614 49.716C90.2001 49.5267 89.9196 49.256 89.7229 48.9025C89.5261 48.5489 89.4277 48.1333 89.4277 47.6555V44.2431H90.4351V47.6038C90.4351 48.0712 90.5584 48.4321 90.8037 48.688C91.0504 48.9454 91.3896 49.0726 91.8243 49.0726C92.2589 49.0726 92.5967 48.9439 92.8404 48.688C93.0842 48.4321 93.2046 48.0697 93.2046 47.6038V44.2431H94.212V47.6555C94.212 48.1392 94.1136 48.5578 93.9168 48.9113C93.7201 49.2649 93.4425 49.5341 93.0827 49.7204C92.723 49.9068 92.3044 50 91.8228 50C91.3411 50 90.9211 49.9053 90.5584 49.716H90.5614Z" fill="var(--fill-0, white)"/>
<path d="M99.5382 44.2431C100.036 44.2431 100.441 44.3644 100.754 44.6055C101.067 44.8481 101.223 45.2046 101.223 45.6779C101.223 45.8938 101.165 46.0965 101.049 46.2858C100.933 46.4752 100.794 46.6112 100.632 46.6926C100.957 46.7621 101.224 46.9322 101.435 47.1999C101.647 47.4677 101.753 47.7827 101.753 48.1451C101.753 48.7116 101.559 49.1465 101.171 49.4527C100.783 49.7589 100.265 49.9127 99.616 49.9127H96.914V44.2431H99.5382ZM99.9905 46.2207C100.112 46.1098 100.173 45.9575 100.173 45.7652C100.173 45.5729 100.111 45.4087 99.9861 45.2933C99.8613 45.1765 99.6806 45.1188 99.4427 45.1188H97.9229V46.3879H99.4868C99.7012 46.3879 99.8686 46.3332 99.9905 46.2222V46.2207ZM100.394 48.8152C100.6 48.6658 100.703 48.4498 100.703 48.1629C100.703 47.8759 100.609 47.6467 100.421 47.4899C100.233 47.3331 99.9729 47.2532 99.6439 47.2532H97.9243V49.0385H99.5485C99.9083 49.0385 100.19 48.9646 100.396 48.8152H100.394Z" fill="var(--fill-0, white)"/>
<path d="M108.685 44.2431V45.1173H105.324V46.5003H108.494V47.3671H105.324V49.0385H108.807V49.9127H104.317V44.2431H108.685Z" fill="var(--fill-0, white)"/>
<path d="M34.3787 37.1742L34.2054 37.1994C33.9073 37.0825 33.759 36.6491 33.759 35.9007C33.759 35.0354 33.9572 33.7455 34.3537 32.0312C35.4609 27.9043 38.8149 20.3473 44.4172 9.3616L45.5318 7.08961C45.8123 6.45653 46.0281 6.02461 46.1765 5.79091L46.2763 5.56607C46.8373 4.41825 47.1691 3.20386 47.2675 1.92143C47.2675 1.33864 47.0194 0.872704 46.5245 0.523622C46.0296 0.174541 45.4349 0 44.7403 0C44.426 0 44.1132 0.0502914 43.799 0.149395C42.6418 0.483685 40.163 2.57226 36.3626 6.41659C32.3463 10.5272 28.3065 15.6702 24.2417 21.8457C25.9437 14.7398 26.9687 9.17966 27.3153 5.16818V4.99364C27.3153 4.36204 27.0421 3.79108 26.4973 3.28373C25.9525 2.77638 25.3401 2.43174 24.6632 2.24832L24.415 2.22318C23.622 2.22318 22.597 3.01453 21.3415 4.59575C20.0859 6.17697 18.6101 8.39127 16.9169 11.2372C15.2238 14.0831 13.303 17.4289 11.1546 21.2733C9.15599 24.9194 7.29249 28.1735 5.56555 31.0357C3.83861 33.8979 2.4553 35.8208 1.41415 36.8029C1.1322 36.9021 0.826756 37.1432 0.496347 37.5263C0.16447 37.9094 0 38.3087 0 38.7244C0 38.9906 0.0822351 39.248 0.248174 39.498C0.975073 40.4461 1.76805 40.9209 2.62712 40.9209H2.63005C3.47296 40.9194 4.27329 40.4284 5.03396 39.4462C6.78439 37.0485 8.6479 34.0029 10.623 30.308C12.5966 26.613 14.5262 22.8604 16.4103 19.0486C18.8553 14.089 20.945 10.1278 22.6807 7.16504C21.92 13.1749 20.8378 19.9317 19.4339 27.4384C18.6248 31.9661 18.2195 34.3535 18.2195 34.6034C18.2195 34.9688 18.334 35.2853 18.566 35.5516C18.7966 35.8178 19.2019 35.951 19.7805 35.951C20.5235 35.9347 21.0434 35.7675 21.3415 35.451C21.6381 35.1359 21.9024 34.6774 22.1344 34.0783C22.2666 33.7618 22.4237 33.4216 22.6058 33.0548C24.7381 28.7282 27.7734 23.6222 31.7148 17.7381C35.6562 11.8555 39.0396 7.44904 41.865 4.51883C40.7739 6.8988 39.6916 9.10422 38.6182 11.1351C37.2128 13.765 35.8706 16.5858 34.5901 19.5989C33.3096 22.6119 32.1319 26.3734 31.0584 30.8834C30.6458 32.6302 30.4387 34.1464 30.4387 35.4273C30.4387 37.8073 31.1245 39.4063 32.4961 40.2213C32.9586 40.5038 33.3962 40.6458 33.8588 40.6458C34.3214 40.6458 34.7267 40.4964 35.0732 40.1961C35.4198 39.8959 35.5931 39.5216 35.5931 39.072C35.5755 38.6046 35.4565 38.1726 35.2333 37.7733C35.0101 37.3739 34.7252 37.1742 34.3787 37.1742Z" fill="var(--fill-0, white)"/>
<path d="M92.8228 7.28929C93.1532 6.83963 93.3192 6.43286 93.3192 6.06603L93.2942 5.81605C93.2105 5.46697 92.9711 5.18297 92.5746 4.96701C92.1781 4.75106 91.7978 4.64308 91.4351 4.64308C90.8565 4.64308 90.369 4.90933 89.9725 5.44182C89.3455 6.39144 88.6259 7.49785 87.8168 8.76253C84.4627 14.0224 81.257 18.6995 78.1997 22.7938C77.9192 22.461 77.6181 22.1829 77.2951 21.9581C76.972 21.7333 76.7033 21.5794 76.4889 21.4966C75.4977 21.1135 74.5064 20.9227 73.5152 20.9227C72.0452 20.9227 70.6238 21.2718 69.2522 21.9714C67.8806 22.6711 66.6412 23.5689 65.534 24.6679C64.8702 25.3276 64.2784 26.0169 63.7571 26.7358C63.3357 27.1233 62.7865 27.607 62.1066 28.1883C61.1726 28.9871 60.152 29.8036 59.0448 30.6349C56.6658 32.3995 55.0872 33.2811 54.3104 33.2811C54.1621 33.2648 54.0578 33.2278 54.0005 33.1687C53.9418 33.1095 53.9139 32.9719 53.9139 32.756C53.9139 32.4409 53.98 32.0193 54.1121 31.4957C54.2443 30.9706 54.3882 30.481 54.5453 30.0225C54.7025 29.5654 54.817 29.2533 54.8919 29.0862C54.9668 28.9205 55.0035 28.7371 55.0035 28.5374C55.0035 28.2386 54.9257 27.9221 54.7685 27.5893C54.6114 27.2565 54.3853 26.9739 54.0872 26.7402C53.955 26.6396 53.7861 26.5479 53.5791 26.4651C53.372 26.3823 53.1209 26.3409 52.8228 26.3409C51.93 26.3409 50.88 26.8408 49.6744 27.8392C49.1957 28.2386 48.6743 28.6957 48.1134 29.2119C46.8417 30.3937 45.3703 31.6081 43.7021 32.8565C42.7769 33.5059 42.1484 33.8298 41.818 33.8298L41.7196 33.8047C41.6858 33.7721 41.6697 33.713 41.6697 33.6301C41.6697 33.3299 41.8635 32.8107 42.2527 32.0696C42.6418 31.3301 43.1734 30.5683 43.8518 29.7858C44.4804 29.0699 45.2396 28.3629 46.1324 27.6632C47.0238 26.9636 47.9665 26.3808 48.9578 25.9149C49.949 25.4489 50.8903 25.2152 51.7831 25.2152C52.394 25.2152 52.9564 25.3572 53.4689 25.6397C53.7156 25.7729 53.9638 25.8394 54.212 25.8394C54.839 25.8394 55.4338 25.5392 55.9962 24.9401C56.5572 24.341 56.8391 23.7819 56.8391 23.2672C56.8391 22.7524 56.5865 22.3146 56.0828 21.9566C55.5777 21.5987 54.9506 21.3324 54.1988 21.1579C53.4469 20.9833 52.7068 20.8961 51.9799 20.8961C50.6245 20.8961 49.228 21.1963 47.7903 21.7954C44.9473 23.0778 42.5258 24.9874 40.5272 27.5257C38.5286 30.0639 37.5286 32.2486 37.5286 34.0798C37.5286 34.9791 37.7679 35.6773 38.2466 36.1773C38.7254 36.6757 39.3862 36.9257 40.2291 36.9257C41.633 36.9257 43.3188 36.2098 45.2851 34.778C47.0693 33.3964 48.5157 32.1968 49.623 31.1821C49.5246 31.7649 49.4747 32.3048 49.4747 32.8048C49.4747 34.17 49.7875 35.2188 50.416 35.951C51.0445 36.6831 51.7949 37.05 52.6716 37.05H52.6745C54.2443 37.0514 56.3428 35.9879 58.9699 33.8565C59.7775 33.216 60.6454 32.472 61.5764 31.6274C61.5206 31.9868 61.4927 32.3388 61.4927 32.682C61.4927 33.8461 61.7938 34.8164 62.3973 35.59C63.0009 36.3636 63.8805 36.7512 65.0376 36.7512C65.9466 36.7512 66.9907 36.4731 68.1729 35.9154C69.355 35.3578 70.7148 34.3919 72.2508 33.0193C73.7869 31.6466 75.5549 29.7533 77.555 27.3393C75.8706 31.2176 74.4565 34.7883 73.317 38.0499L72.8955 39.174C72.8133 39.39 72.7721 39.5985 72.7721 39.7982C72.7721 40.4136 73.0497 40.9254 73.6033 41.3336C74.1569 41.7404 74.7223 41.9445 75.3009 41.9445H75.2994C76.1409 41.943 76.7282 41.4608 77.0587 40.4949C78.5962 35.0353 80.9134 29.1276 84.0119 22.7687C87.1089 16.4113 90.0474 11.2505 92.8228 7.28929ZM72.9219 29.2356C71.7648 30.484 70.6752 31.4661 69.6502 32.1821C68.6252 32.898 67.6839 33.2559 66.8248 33.2559C66.114 33.2559 65.7587 32.9231 65.7587 32.2575C65.7587 31.7072 66.0715 30.8671 66.7 29.7355C67.7411 28.0374 69.0672 26.7062 70.6781 25.7403C72.289 24.7744 73.64 24.2922 74.7311 24.2922C75.3097 24.2922 75.9206 24.5008 76.5652 24.9164C75.2935 26.5479 74.0791 27.9872 72.9219 29.2356Z" fill="var(--fill-0, white)"/>
<path d="M117.934 26.2654C117.719 26.2654 117.521 26.3409 117.339 26.4902C113.092 30.0358 110.076 32.2501 108.292 33.1317C107.533 33.497 107.02 33.6804 106.756 33.6804C106.442 33.6642 106.284 33.4734 106.284 33.1065C106.384 32.1747 106.813 30.8967 107.574 29.274C108.333 27.6514 109.292 25.9489 110.449 24.168C110.63 23.918 110.746 23.6902 110.796 23.4816C110.846 23.2746 110.87 23.0453 110.87 22.7953C110.87 22.495 110.796 22.1874 110.647 21.8708C110.499 21.5558 110.16 21.3147 109.631 21.1475C109.267 21.0484 108.912 20.9981 108.565 20.9981H108.417C106.982 20.9981 105.437 23.0098 103.782 27.0316C102.93 27.6928 102.173 28.209 101.51 28.5744C100.559 29.0995 99.9611 29.3613 99.7129 29.3613C99.4809 29.3613 99.3444 29.2859 99.3032 29.1365C99.2621 28.9871 99.2416 28.7963 99.2416 28.5626C99.2753 28.1129 99.3576 27.573 99.4897 26.9399C99.688 26.0406 99.8113 25.0584 99.8613 23.9934C99.8613 22.8781 99.4809 22.0454 98.7217 21.4966C98.243 21.1638 97.7143 20.9967 97.1357 20.9967C96.7716 20.9967 96.4074 21.0721 96.0447 21.2215C95.0857 21.4212 93.2839 23.2686 90.6407 26.7639C91.1693 25.7995 91.5819 25.0658 91.8801 24.5673C92.1782 24.0689 92.3926 23.6784 92.5247 23.3944C92.6569 23.1119 92.723 22.8279 92.723 22.5453C92.723 22.0454 92.5159 21.6416 92.1033 21.3339C91.6906 21.0262 91.112 20.8724 90.369 20.8724C89.5598 20.8724 88.9651 21.2215 88.5848 21.9211L88.04 23.069C86.9827 25.1842 85.9914 27.2727 85.0663 29.3362C84.1397 31.4011 83.2894 33.6139 82.5126 35.9776C82.4803 36.0604 82.4597 36.1314 82.4509 36.1891C82.4436 36.2483 82.4392 36.3015 82.4392 36.3518C82.4553 36.6506 82.6536 36.9671 83.0339 37.2999C83.4142 37.6328 83.9179 37.7999 84.5464 37.7999H84.542C85.0868 37.7999 85.5759 37.4922 86.0047 36.8769C86.7976 35.6462 88.087 33.8727 89.8712 31.5593C91.6568 29.2459 93.4572 27.2402 95.2752 25.5421C95.1254 26.2906 95.0432 27.0819 95.027 27.9132C95.027 29.4959 95.4485 30.6186 96.2914 31.2842C96.8362 31.6496 97.4397 31.833 98.1005 31.833C99.3884 31.7812 100.952 31.1851 102.789 30.0461C102.521 31.1378 102.364 32.1998 102.318 33.2308C102.318 35.377 103.145 36.476 104.797 36.5263H104.798C106.202 36.5278 108.102 35.7453 110.499 34.1804C112.746 32.716 115.464 30.6437 118.653 27.9635C118.884 27.7801 119 27.5641 119 27.3141C118.934 26.6485 118.579 26.2994 117.934 26.2654Z" fill="var(--fill-0, white)"/>
<path d="M110.547 20.1225C111.06 20.0885 111.614 19.9893 112.208 19.8222C113.678 19.5737 114.414 19.0397 114.414 18.2247C114.398 17.8919 114.273 17.5014 114.042 17.0517C113.696 16.4201 113.183 16.1036 112.506 16.1036C112.192 16.1361 111.887 16.1953 111.589 16.2781L111.539 16.3033C110.431 16.7027 109.662 17.0932 109.233 17.4763C108.951 17.744 108.812 18.0517 108.812 18.4007C108.828 18.7838 108.969 19.1655 109.233 19.5486C109.497 19.9317 109.935 20.1225 110.547 20.1225Z" fill="var(--fill-0, white)"/>
</g>
</svg>
