<svg preserveAspectRatio="none" width="100%" height="100%" overflow="visible" style="display: block;" viewBox="0 0 70.5 59.2481" fill="none" xmlns="http://www.w3.org/2000/svg">
<g id="Group">
<path id="Vector" opacity="0.4" d="M5.54883 56.9699V9.06006C5.54883 3.03006 8.54898 0 14.519 0H33.2088C39.1788 0 42.1488 3.03006 42.1488 9.06006V56.9699" fill="var(--fill-0, #FF928F)"/>
<path id="Vector_2" d="M31.5024 17.9648H16.6523C15.4223 17.9648 14.4023 16.9448 14.4023 15.7148C14.4023 14.4848 15.4223 13.4648 16.6523 13.4648H31.5024C32.7324 13.4648 33.7524 14.4848 33.7524 15.7148C33.7524 16.9448 32.7324 17.9648 31.5024 17.9648Z" fill="var(--fill-0, #FF928F)"/>
<path id="Vector_3" d="M31.5024 29.2148H16.6523C15.4223 29.2148 14.4023 28.1948 14.4023 26.9648C14.4023 25.7348 15.4223 24.7148 16.6523 24.7148H31.5024C32.7324 24.7148 33.7524 25.7348 33.7524 26.9648C33.7524 28.1948 32.7324 29.2148 31.5024 29.2148Z" fill="var(--fill-0, #FF928F)"/>
<path id="Vector_4" d="M24 59.2148C22.77 59.2148 21.75 58.1948 21.75 56.9648V45.7148C21.75 44.4848 22.77 43.4648 24 43.4648C25.23 43.4648 26.25 44.4848 26.25 45.7148V56.9648C26.25 58.1948 25.23 59.2148 24 59.2148Z" fill="var(--fill-0, #FF928F)"/>
<path id="Vector_5" d="M68.25 54.7181H61.44V45.7181C64.29 44.7881 66.36 42.1181 66.36 38.9681V32.9681C66.36 29.0381 63.15 25.8281 59.22 25.8281C55.29 25.8281 52.08 29.0381 52.08 32.9681V38.9681C52.08 42.0881 54.12 44.7281 56.91 45.6881V54.7181H2.25C1.02 54.7181 0 55.7381 0 56.9681C0 58.1981 1.02 59.2181 2.25 59.2181H59.04C59.1 59.2181 59.13 59.2481 59.19 59.2481C59.25 59.2481 59.28 59.2181 59.34 59.2181H68.25C69.48 59.2181 70.5 58.1981 70.5 56.9681C70.5 55.7381 69.48 54.7181 68.25 54.7181Z" fill="var(--fill-0, #FF928F)"/>
</g>
</svg>
