<svg width="20" height="20" viewBox="0 0 20 20" fill="none" xmlns="http://www.w3.org/2000/svg">
<path opacity="0.4" d="M20 5.81V14.19C20 17 18.71 18.93 16.44 19.66C15.78 19.89 15.02 20 14.19 20H5.81C4.98 20 4.22 19.89 3.56 19.66C1.29 18.93 0 17 0 14.19V5.81C0 2.17 2.17 0 5.81 0H14.19C17.83 0 20 2.17 20 5.81Z" fill="white"/>
<path d="M16.4386 19.6588C15.7786 19.8888 15.0186 19.9988 14.1886 19.9988H5.80859C4.97859 19.9988 4.21859 19.8888 3.55859 19.6588C3.90859 17.0188 6.6686 14.9688 9.9986 14.9688C13.3286 14.9688 16.0886 17.0188 16.4386 19.6588Z" fill="white"/>
<path d="M13.5819 9.58C13.5819 11.56 11.9819 13.17 10.0019 13.17C8.02189 13.17 6.42188 11.56 6.42188 9.58C6.42188 7.60002 8.02189 6 10.0019 6C11.9819 6 13.5819 7.60002 13.5819 9.58Z" fill="white"/>
</svg>
