<svg width="22" height="22" viewBox="0 0 22 22" fill="none" xmlns="http://www.w3.org/2000/svg">
<path d="M8.93734 21.5016C8.72007 21.5027 8.50763 21.4374 8.32843 21.3146C8.14922 21.1917 8.01177 21.0171 7.93445 20.8141L6.22257 16.3625C6.1879 16.2728 6.13486 16.1913 6.06686 16.1233C5.99886 16.0553 5.91739 16.0023 5.82769 15.9676L1.37484 14.2545C1.172 14.1766 0.997539 14.0391 0.874475 13.86C0.751411 13.681 0.685532 13.4688 0.685532 13.2516C0.685532 13.0343 0.751411 12.8221 0.874475 12.6431C0.997539 12.464 1.172 12.3265 1.37484 12.2487L5.8264 10.5368C5.91611 10.5021 5.99757 10.4491 6.06557 10.3811C6.13358 10.3131 6.18661 10.2316 6.22128 10.1419L7.93445 5.68906C8.0123 5.48623 8.14982 5.31176 8.32887 5.1887C8.50792 5.06564 8.72008 4.99976 8.93734 4.99976C9.1546 4.99976 9.36676 5.06564 9.54581 5.1887C9.72486 5.31176 9.86238 5.48623 9.94023 5.68906L11.6521 10.1406C11.6868 10.2303 11.7398 10.3118 11.8078 10.3798C11.8758 10.4478 11.9573 10.5008 12.047 10.5355L16.4728 12.2384C16.6839 12.3166 16.8657 12.458 16.9936 12.6433C17.1214 12.8286 17.1891 13.0488 17.1873 13.2739C17.1841 13.4874 17.1168 13.695 16.9942 13.8698C16.8716 14.0446 16.6994 14.1786 16.4998 14.2545L12.0483 15.9663C11.9586 16.001 11.8771 16.054 11.8091 16.122C11.7411 16.19 11.6881 16.2715 11.6534 16.3612L9.94023 20.8141C9.86291 21.0171 9.72546 21.1917 9.54625 21.3146C9.36704 21.4374 9.15461 21.5027 8.93734 21.5016Z" fill="#E73C38"/>
<path opacity="0.4" d="M3.78117 7.56238C3.65379 7.56238 3.5294 7.52378 3.42439 7.45168C3.31939 7.37957 3.23869 7.27735 3.19293 7.15848L2.46847 5.27473C2.45277 5.23353 2.42854 5.19611 2.39736 5.16494C2.36619 5.13376 2.32877 5.10953 2.28757 5.09383L0.403825 4.36937C0.284965 4.3236 0.182758 4.2429 0.110672 4.13789C0.038585 4.03288 0 3.9085 0 3.78113C0 3.65376 0.038585 3.52938 0.110672 3.42437C0.182758 3.31937 0.284965 3.23866 0.403825 3.19289L2.28757 2.46844C2.32873 2.45266 2.36611 2.4284 2.39728 2.39724C2.42844 2.36607 2.4527 2.32869 2.46847 2.28754L3.18648 0.420545C3.22697 0.310632 3.29665 0.213832 3.38803 0.140548C3.47941 0.0672635 3.58903 0.0202665 3.70511 0.00460773C3.84448 -0.0123348 3.98552 0.0177342 4.10586 0.0900465C4.2262 0.162359 4.31895 0.272775 4.36941 0.403787L5.09386 2.28754C5.10964 2.32869 5.13389 2.36607 5.16506 2.39724C5.19623 2.4284 5.23361 2.45266 5.27476 2.46844L7.15851 3.19289C7.27737 3.23866 7.37958 3.31937 7.45167 3.42437C7.52375 3.52938 7.56234 3.65376 7.56234 3.78113C7.56234 3.9085 7.52375 4.03288 7.45167 4.13789C7.37958 4.2429 7.27737 4.3236 7.15851 4.36937L5.27476 5.09383C5.23356 5.10953 5.19615 5.13376 5.16497 5.16494C5.1338 5.19611 5.10957 5.23353 5.09386 5.27473L4.36941 7.15848C4.32365 7.27735 4.24295 7.37957 4.13794 7.45168C4.03294 7.52378 3.90855 7.56238 3.78117 7.56238Z" fill="#E73C38"/>
<path opacity="0.4" d="M17.3743 10.9998C17.2353 10.9997 17.0996 10.9576 16.9851 10.8789C16.8706 10.8002 16.7826 10.6886 16.7328 10.5589L15.7514 8.00785C15.7341 7.9629 15.7076 7.92208 15.6735 7.88803C15.6395 7.85398 15.5986 7.82746 15.5537 7.8102L13.0026 6.82879C12.873 6.77885 12.7616 6.69083 12.683 6.57631C12.6044 6.4618 12.5623 6.32616 12.5623 6.18727C12.5623 6.04837 12.6044 5.91274 12.683 5.79822C12.7616 5.68371 12.873 5.59568 13.0026 5.54574L15.5537 4.56434C15.5986 4.54707 15.6395 4.52056 15.6735 4.48651C15.7076 4.45246 15.7341 4.41163 15.7514 4.36668L16.7255 1.83367C16.7699 1.71389 16.846 1.6084 16.9457 1.52843C17.0453 1.44845 17.1648 1.39698 17.2914 1.3795C17.4434 1.36109 17.5973 1.394 17.7286 1.47301C17.8598 1.55202 17.9609 1.67261 18.0158 1.81563L18.9972 4.36668C19.0145 4.41163 19.041 4.45246 19.075 4.48651C19.1091 4.52056 19.1499 4.54707 19.1949 4.56434L21.7459 5.54574C21.8755 5.59568 21.987 5.68371 22.0656 5.79822C22.1442 5.91274 22.1862 6.04837 22.1862 6.18727C22.1862 6.32616 22.1442 6.4618 22.0656 6.57631C21.987 6.69083 21.8755 6.77885 21.7459 6.82879L19.1949 7.8102C19.1499 7.82746 19.1091 7.85398 19.075 7.88803C19.041 7.92208 19.0145 7.9629 18.9972 8.00785L18.0158 10.5589C17.966 10.6886 17.878 10.8002 17.7634 10.8789C17.6489 10.9576 17.5132 10.9997 17.3743 10.9998Z" fill="#E73C38"/>
</svg>
