<svg width="20" height="20" viewBox="0 0 20 20" fill="none" xmlns="http://www.w3.org/2000/svg">
<path d="M15.62 8.7516C15.19 8.7516 14.85 8.4016 14.85 7.98156C14.85 7.61156 14.48 6.84156 13.86 6.17156C13.25 5.52156 12.58 5.14156 12.02 5.14156C11.59 5.14156 11.25 4.79156 11.25 4.37156C11.25 3.95156 11.6 3.60156 12.02 3.60156C13.02 3.60156 14.07 4.14156 14.99 5.11156C15.85 6.02156 16.4 7.15156 16.4 7.97156C16.4 8.4016 16.05 8.7516 15.62 8.7516Z" fill="#FF928F"/>
<path d="M19.2298 8.75C18.7998 8.75 18.4598 8.4 18.4598 7.98C18.4598 4.43 15.5698 1.55 12.0298 1.55C11.5998 1.55 11.2598 1.2 11.2598 0.78C11.2598 0.36 11.5998 0 12.0198 0C16.4198 0 19.9998 3.58 19.9998 7.98C19.9998 8.4 19.6498 8.75 19.2298 8.75Z" fill="#FF928F"/>
<path opacity="0.4" d="M9.79 12.21L6.52 15.48C6.16 15.16 5.81 14.83 5.47 14.49C4.44 13.45 3.51 12.36 2.68 11.22C1.86 10.08 1.2 8.94 0.72 7.81C0.24 6.67 0 5.58 0 4.54C0 3.86 0.12 3.21 0.36 2.61C0.6 2 0.98 1.44 1.51 0.94C2.15 0.31 2.85 0 3.59 0C3.87 0 4.15 0.0600001 4.4 0.18C4.66 0.3 4.89 0.48 5.07 0.74L7.39 4.01C7.57 4.26 7.7 4.49 7.79 4.71C7.88 4.92 7.93 5.13 7.93 5.32C7.93 5.56 7.86 5.8 7.72 6.03C7.59 6.26 7.4 6.5 7.16 6.74L6.4 7.53C6.29 7.64 6.24 7.77 6.24 7.93C6.24 8.01 6.25 8.08 6.27 8.16C6.3 8.24 6.33 8.3 6.35 8.36C6.53 8.69 6.84 9.12 7.28 9.64C7.73 10.16 8.21 10.69 8.73 11.22C9.09 11.57 9.44 11.91 9.79 12.21Z" fill="#FF928F"/>
<path d="M19.9696 16.3291C19.9696 16.6091 19.9196 16.8991 19.8196 17.1791C19.7896 17.2591 19.7596 17.3391 19.7196 17.4191C19.5496 17.7791 19.3296 18.1191 19.0396 18.4391C18.5496 18.9791 18.0096 19.3691 17.3996 19.6191C17.3896 19.6191 17.3796 19.6291 17.3696 19.6291C16.7796 19.8691 16.1396 19.9991 15.4496 19.9991C14.4296 19.9991 13.3396 19.7591 12.1896 19.2691C11.0396 18.7791 9.8896 18.1191 8.7496 17.2891C8.3596 16.9991 7.96961 16.7091 7.59961 16.3991L10.8696 13.1291C11.1496 13.3391 11.3996 13.4991 11.6096 13.6091C11.6596 13.6291 11.7196 13.6591 11.7896 13.6891C11.8696 13.7191 11.9496 13.7291 12.0396 13.7291C12.2096 13.7291 12.3396 13.6691 12.4496 13.5591L13.2096 12.8091C13.4596 12.5591 13.6996 12.3691 13.9296 12.2491C14.1596 12.1091 14.3896 12.0391 14.6396 12.0391C14.8296 12.0391 15.0296 12.0791 15.2496 12.1691C15.4696 12.2591 15.6996 12.3891 15.9496 12.5591L19.2596 14.9091C19.5196 15.0891 19.6996 15.2991 19.8096 15.5491C19.9096 15.7991 19.9696 16.0491 19.9696 16.3291Z" fill="#FF928F"/>
</svg>
