<svg preserveAspectRatio="none" width="100%" height="100%" overflow="visible" style="display: block;" viewBox="0 0 60 54" fill="none" xmlns="http://www.w3.org/2000/svg">
<g id="Group">
<path id="Vector" opacity="0.4" d="M48 0H12C5.37 0 0 5.34 0 11.91V42.09C0 48.66 5.37 54 12 54H48C54.63 54 60 48.66 60 42.09V11.91C60 5.34 54.63 0 48 0Z" fill="var(--fill-0, #FF928F)"/>
<path id="Vector_2" d="M51 17.25H36C34.77 17.25 33.75 16.23 33.75 15C33.75 13.77 34.77 12.75 36 12.75H51C52.23 12.75 53.25 13.77 53.25 15C53.25 16.23 52.23 17.25 51 17.25Z" fill="var(--fill-0, #FF928F)"/>
<path id="Vector_3" d="M51 29.25H39C37.77 29.25 36.75 28.23 36.75 27C36.75 25.77 37.77 24.75 39 24.75H51C52.23 24.75 53.25 25.77 53.25 27C53.25 28.23 52.23 29.25 51 29.25Z" fill="var(--fill-0, #FF928F)"/>
<path id="Vector_4" d="M51 41.25H45C43.77 41.25 42.75 40.23 42.75 39C42.75 37.77 43.77 36.75 45 36.75H51C52.23 36.75 53.25 37.77 53.25 39C53.25 40.23 52.23 41.25 51 41.25Z" fill="var(--fill-0, #FF928F)"/>
<path id="Vector_5" d="M19.4983 26.3757C23.3257 26.3757 26.4285 23.2731 26.4285 19.4456C26.4285 15.6183 23.3257 12.5156 19.4983 12.5156C15.671 12.5156 12.5683 15.6183 12.5683 19.4456C12.5683 23.2731 15.671 26.3757 19.4983 26.3757Z" fill="var(--fill-0, #FF928F)"/>
<path id="Vector_6" d="M21.8986 30.3351C20.3086 30.1851 18.6586 30.1851 17.0686 30.3351C12.0286 30.8151 7.97862 34.8051 7.49862 39.8451C7.46862 40.2651 7.58862 40.6851 7.88862 40.9851C8.18862 41.2851 8.57862 41.4951 8.99862 41.4951H29.9985C30.4185 41.4951 30.8385 41.3151 31.1085 41.0151C31.3785 40.7151 31.5285 40.2951 31.4985 39.8751C30.9885 34.8051 26.9685 30.8151 21.8986 30.3351Z" fill="var(--fill-0, #FF928F)"/>
</g>
</svg>
