<svg preserveAspectRatio="none" width="100%" height="100%" overflow="visible" style="display: block;" viewBox="0 0 16.1667 14.1667" fill="none" xmlns="http://www.w3.org/2000/svg">
<g id="Group">
<path id="Vector" d="M0.75 13.41H15.4167M13.27 13.4167V10.4433M1.48333 13.41V2.76333C1.48333 1.42333 2.15 0.75 3.47667 0.75H7.63C8.95667 0.75 9.61667 1.42333 9.61667 2.76333V13.41M3.95 4.24333H7.25M3.95 6.74333H7.25M5.58333 13.41V10.91M13.2833 6.00333C12.47 6.00333 11.8167 6.65667 11.8167 7.47V8.98333C11.8167 9.79667 12.47 10.45 13.2833 10.45C14.0967 10.45 14.75 9.79667 14.75 8.98333V7.47C14.75 6.65667 14.0967 6.00333 13.2833 6.00333Z" stroke="var(--stroke-0, #F7F7F7)" stroke-width="1.5" stroke-miterlimit="10" stroke-linecap="round" stroke-linejoin="round"/>
</g>
</svg>
