<svg width="20" height="20" viewBox="0 0 20 20" fill="none" xmlns="http://www.w3.org/2000/svg">
<path opacity="0.4" d="M4.94616 18.6304C6.43616 19.5004 8.16616 20.0005 10.0062 20.0005C15.6362 20.0005 20.3162 15.0305 19.9862 9.4105C19.6462 3.61045 14.3762 -0.85955 8.30616 0.14045C4.12615 0.83045 0.776152 4.22045 0.126152 8.4005C-0.253848 10.8205 0.246172 13.1105 1.33617 15.0005L0.446162 18.3104C0.246162 19.0604 0.936142 19.7404 1.67614 19.5304L4.94616 18.6304Z" fill="#FF928F"/>
<path d="M15.0059 13.1705C15.0059 13.3505 14.9659 13.5405 14.8759 13.7205C14.7859 13.9005 14.6759 14.0705 14.5359 14.2305C14.2859 14.5005 14.0159 14.7005 13.7159 14.8205C13.4159 14.9505 13.0859 15.0105 12.7359 15.0105C12.2259 15.0105 11.6759 14.8905 11.1059 14.6405C10.5259 14.3905 9.95586 14.0605 9.38586 13.6505C8.80586 13.2305 8.26586 12.7605 7.74585 12.2505C7.22585 11.7305 6.76589 11.1805 6.34589 10.6105C5.93589 10.0405 5.60585 9.4705 5.36585 8.9005C5.12585 8.3305 5.00586 7.78047 5.00586 7.26047C5.00586 6.92047 5.06585 6.59047 5.18585 6.29047C5.30585 5.98047 5.49587 5.70046 5.76587 5.45046C6.08587 5.13046 6.43585 4.98047 6.80585 4.98047C6.94585 4.98047 7.08588 5.01047 7.21588 5.07047C7.34588 5.13047 7.46585 5.22046 7.55585 5.35046L8.70586 7.00047C8.79586 7.13047 8.86586 7.24046 8.90586 7.35046C8.95586 7.46046 8.97586 7.56047 8.97586 7.66047C8.97586 7.78047 8.93586 7.90046 8.86586 8.0205C8.79586 8.1405 8.70586 8.2605 8.58586 8.3805L8.20586 8.7805C8.14586 8.8405 8.12586 8.9005 8.12586 8.9805C8.12586 9.0205 8.13586 9.0605 8.14586 9.1005C8.16586 9.1405 8.17586 9.1705 8.18586 9.2005C8.27586 9.3705 8.43586 9.5805 8.65586 9.8405C8.88586 10.1005 9.12586 10.3705 9.38586 10.6305C9.65586 10.9005 9.91586 11.1405 10.1859 11.3705C10.4459 11.5905 10.6659 11.7405 10.8359 11.8305C10.8659 11.8405 10.8959 11.8605 10.9259 11.8705C10.9659 11.8905 11.0059 11.8905 11.0559 11.8905C11.1459 11.8905 11.2059 11.8605 11.2659 11.8005L11.6459 11.4205C11.7759 11.2905 11.8959 11.2005 12.0059 11.1405C12.1259 11.0705 12.2359 11.0305 12.3659 11.0305C12.4659 11.0305 12.5659 11.0505 12.6759 11.1005C12.7859 11.1505 12.9059 11.2105 13.0259 11.3005L14.6859 12.4805C14.8159 12.5705 14.9059 12.6805 14.9659 12.8005C14.9759 12.9105 15.0059 13.0305 15.0059 13.1705Z" fill="#FF928F"/>
</svg>
