<svg width="18" height="21" viewBox="0 0 18 21" fill="none" xmlns="http://www.w3.org/2000/svg">
<path opacity="0.4" d="M17.5 6.7C16.45 2.08 12.42 0 8.88001 0C8.88001 0 8.88001 0 8.87001 0C5.33998 0 1.29998 2.07 0.249978 6.69C-0.920022 11.85 2.23998 16.22 5.09998 18.97C6.15998 19.99 7.52001 20.5 8.88001 20.5C10.24 20.5 11.6 19.99 12.65 18.97C15.51 16.22 18.67 11.86 17.5 6.7Z" fill="#FF928F"/>
<path d="M8.88051 11.7102C10.6202 11.7102 12.0305 10.2999 12.0305 8.5602C12.0305 6.82046 10.6202 5.41016 8.88051 5.41016C7.14081 5.41016 5.73047 6.82046 5.73047 8.5602C5.73047 10.2999 7.14081 11.7102 8.88051 11.7102Z" fill="#FF928F"/>
</svg>
