<svg width="125" height="67" viewBox="0 0 125 67" fill="none" xmlns="http://www.w3.org/2000/svg">
<g clip-path="url(#clip0_238_2411)">
<path d="M34.4182 46.6132C40.4818 46.6132 45.4 41.6245 45.4 35.474C45.4 29.3234 40.4818 24.3348 34.4182 24.3348C28.3546 24.3348 23.4364 29.3234 23.4364 35.474C23.4364 41.6245 28.3546 46.6132 34.4182 46.6132Z" fill="#EF5450"/>
<path d="M10.9818 46.6132C17.0455 46.6132 21.9636 41.6245 21.9636 35.474C21.9636 29.3234 17.0455 24.3348 10.9818 24.3348C4.91818 24.3348 0 29.3188 0 35.474C0 41.6291 4.91818 46.6132 10.9818 46.6132Z" fill="#EF5450"/>
<path d="M10.9818 23.0484C17.0455 23.0484 21.9636 18.0597 21.9636 11.9092C21.9636 5.75864 17.05 0.76536 10.9818 0.76536C4.91364 0.76536 0 5.75403 0 11.9092C0 18.0643 4.91818 23.0484 10.9818 23.0484Z" fill="#EF5450"/>
<path d="M51.6318 0.76536H72.1C77.1409 0.76536 81.1046 2.17159 83.6273 4.72586C85.6455 6.77297 86.65 9.25808 86.65 12.3287V12.4578C86.65 17.5018 84.0046 20.3143 80.8546 22.1032C85.9546 24.0812 89.1046 27.0873 89.1046 33.0903V33.2194C89.1046 41.394 82.5591 45.4836 72.6046 45.4836H51.6318V0.76536ZM77.0046 13.9839C77.0046 11.0424 74.7364 9.38257 70.6455 9.38257H61.0773V18.8343H70.0182C74.3046 18.8343 77.0091 17.4281 77.0091 14.1038V13.9747L77.0046 13.9839ZM72.2818 27.0181H61.0727V36.8525H72.6C76.8818 36.8525 79.4637 35.3172 79.4637 31.9976V31.8685C79.4637 28.867 77.2637 27.0135 72.2864 27.0135H72.2818V27.0181Z" fill="#525758"/>
<path d="M95.4591 41.4539C92.25 38.1988 90.2318 33.4084 90.2318 24.5284V24.3993C90.2318 10.6044 96.4045 1.14441e-05 109.564 1.14441e-05C115.545 1.14441e-05 119.45 1.78892 123.359 4.91952L118.259 12.5224C115.359 10.2909 113.032 8.94457 109.255 8.94457C102.641 8.94457 100.691 15.3948 100.373 19.2908C102.7 17.6955 105.473 16.4184 109.505 16.4184C118.259 16.4184 124.995 21.3379 124.995 30.6605V30.7896C124.995 39.9232 117.755 46.2489 108.182 46.2489C102.45 46.2489 98.5455 44.5891 95.4636 41.4585H95.4591V41.4539ZM115.364 31.2322V31.1031C115.364 27.3363 112.464 24.5929 107.682 24.5929C102.9 24.5929 100.127 27.2763 100.127 31.0432V31.1723C100.127 34.9391 103.027 37.8115 107.809 37.8115C112.591 37.8115 115.364 35.0682 115.364 31.2322Z" fill="#EF5450"/>
<path d="M1.39093 49.9558H4.38638V52.5193H1.39093V49.9558ZM1.46366 53.6489H4.31366V63.8384H1.46366V53.6489Z" fill="#525758"/>
<path d="M6.24091 53.649H9.09091V55.0967C9.74545 54.2437 10.5909 53.4599 12.0364 53.4599C14.1909 53.4599 15.4455 54.9077 15.4455 57.2406V63.8384H12.5955V58.1535C12.5955 56.7888 11.9591 56.0834 10.8727 56.0834C9.78636 56.0834 9.09545 56.7888 9.09545 58.1535V63.8384H6.24545V53.649H6.24091Z" fill="#525758"/>
<path d="M16.6773 58.7944V58.7529C16.6773 55.8482 18.8727 53.4507 21.9409 53.4507C23.8318 53.4507 25.0136 54.0962 25.9545 55.1612L24.2091 57.0654C23.5727 56.3784 22.9364 55.9404 21.9227 55.9404C20.4955 55.9404 19.4909 57.2129 19.4909 58.7206V58.7621C19.4909 60.3251 20.4864 61.5746 22.0364 61.5746C22.9909 61.5746 23.65 61.155 24.3455 60.4911L26.0091 62.2016C25.0364 63.2851 23.9136 64.0643 21.9045 64.0643C18.8864 64.0643 16.6773 61.7083 16.6773 58.799V58.7944Z" fill="#525758"/>
<path d="M26.35 58.7944V58.7529C26.35 55.8251 28.6728 53.4507 31.8 53.4507C34.9273 53.4507 37.2182 55.7836 37.2182 58.716V58.7575C37.2182 61.6852 34.8955 64.0597 31.7682 64.0597C28.6409 64.0597 26.35 61.7175 26.35 58.7944ZM34.4046 58.7944V58.7529C34.4046 57.2544 33.3364 55.9404 31.7637 55.9404C30.1909 55.9404 29.1591 57.2129 29.1591 58.7206V58.7621C29.1591 60.2605 30.2273 61.5746 31.8 61.5746C33.3728 61.5746 34.4046 60.302 34.4046 58.7944Z" fill="#525758"/>
<path d="M38.5273 53.649H41.3773V55.7007C41.9591 54.2944 42.8955 53.3815 44.5818 53.4599V56.4799H44.4273C42.5364 56.4799 41.3682 57.6371 41.3682 60.0715V63.8384H38.5182V53.649H38.5227H38.5273Z" fill="#525758"/>
<path d="M45.6091 53.649H48.4591V55.1151C49.1546 54.1653 50.1091 53.4599 51.591 53.4599C53.9319 53.4599 56.1591 55.3226 56.1591 58.7252V58.7667C56.1591 62.1693 53.9637 64.032 51.591 64.032C50.0728 64.032 49.1364 63.3266 48.4591 62.5105V66.8814H45.6091V53.649ZM53.3137 58.7621V58.7206C53.3137 57.0239 52.1864 55.9082 50.8591 55.9082C49.5319 55.9082 48.4273 57.0331 48.4273 58.7206V58.7621C48.4273 60.4588 49.5364 61.5746 50.8591 61.5746C52.1819 61.5746 53.3137 60.4726 53.3137 58.7621Z" fill="#525758"/>
<path d="M57.0227 58.7944V58.7529C57.0227 55.8251 59.3455 53.4507 62.4727 53.4507C65.6 53.4507 67.8909 55.7836 67.8909 58.716V58.7575C67.8909 61.6852 65.5682 64.0597 62.4409 64.0597C59.3136 64.0597 57.0227 61.7175 57.0227 58.7944ZM65.0818 58.7944V58.7529C65.0818 57.2544 64.0136 55.9404 62.4409 55.9404C60.8682 55.9404 59.8364 57.2129 59.8364 58.7206V58.7621C59.8364 60.2605 60.9046 61.5746 62.4773 61.5746C64.05 61.5746 65.0818 60.302 65.0818 58.7944Z" fill="#525758"/>
<path d="M69.2 53.649H72.05V55.7007C72.6318 54.2944 73.5682 53.3815 75.2546 53.4599V56.4799H75.1C73.2091 56.4799 72.0409 57.6371 72.0409 60.0715V63.8384H69.1909V53.649H69.1955H69.2Z" fill="#525758"/>
<path d="M75.2137 60.906V60.8645C75.2137 58.6376 76.8773 57.6141 79.2591 57.6141C80.2727 57.6141 81.0046 57.7801 81.7137 58.029V57.863C81.7137 56.6643 80.9864 56.0004 79.5591 56.0004C78.4727 56.0004 77.7 56.2078 76.7864 56.5536L76.0773 54.3452C77.1864 53.8518 78.2727 53.5245 79.9773 53.5245C81.5364 53.5245 82.6546 53.944 83.3682 54.6679C84.1182 55.4286 84.4546 56.5536 84.4546 57.9184V63.8292H81.7046V62.7272C81.0091 63.5064 80.0546 64.0182 78.6682 64.0182C76.7773 64.0182 75.2182 62.9163 75.2182 60.9014L75.2137 60.906ZM81.75 60.2421V59.7303C81.2637 59.4998 80.6227 59.3477 79.9318 59.3477C78.7137 59.3477 77.9637 59.8456 77.9637 60.7539V60.7954C77.9637 61.5746 78.6 62.031 79.5227 62.031C80.8546 62.031 81.75 61.2933 81.75 60.2421Z" fill="#525758"/>
<path d="M85.7046 58.7621V58.7206C85.7046 55.318 87.9 53.4553 90.2727 53.4553C91.7909 53.4553 92.7273 54.1607 93.4046 54.9768V49.9605H96.2546V63.8384H93.4046V62.3722C92.7091 63.322 91.7546 64.0274 90.2727 64.0274C87.9318 64.0274 85.7046 62.1647 85.7046 58.7621ZM93.4455 58.7621V58.7206C93.4455 57.0239 92.3364 55.9081 91.0136 55.9081C89.6909 55.9081 88.5591 57.0101 88.5591 58.7206V58.7621C88.5591 60.4588 89.6864 61.5746 91.0136 61.5746C92.3409 61.5746 93.4455 60.4496 93.4455 58.7621Z" fill="#525758"/>
<path d="M97.5637 58.7944V58.7529C97.5637 55.8251 99.8864 53.4507 103.014 53.4507C106.141 53.4507 108.432 55.7836 108.432 58.716V58.7575C108.432 61.6852 106.109 64.0597 102.982 64.0597C99.8546 64.0597 97.5637 61.7175 97.5637 58.7944ZM105.627 58.7944V58.7529C105.627 57.2544 104.559 55.9404 102.986 55.9404C101.414 55.9404 100.382 57.2129 100.382 58.7206V58.7621C100.382 60.2605 101.45 61.5746 103.023 61.5746C104.595 61.5746 105.627 60.302 105.627 58.7944Z" fill="#525758"/>
<path d="M109.745 53.649H112.595V55.7007C113.177 54.2944 114.114 53.3815 115.8 53.4599V56.4799H115.645C113.755 56.4799 112.586 57.6371 112.586 60.0715V63.8384H109.736V53.649H109.741H109.745Z" fill="#525758"/>
<path d="M115.764 60.906V60.8645C115.764 58.6376 117.436 57.6141 119.809 57.6141C120.823 57.6141 121.555 57.7801 122.264 58.029V57.863C122.264 56.6643 121.536 56.0004 120.109 56.0004C119.023 56.0004 118.25 56.2078 117.336 56.5536L116.627 54.3452C117.736 53.8518 118.823 53.5245 120.527 53.5245C122.086 53.5245 123.205 53.944 123.918 54.6679C124.668 55.4286 125.005 56.5536 125.005 57.9184V63.8292H122.255V62.7272C121.559 63.5064 120.605 64.0182 119.218 64.0182C117.327 64.0182 115.768 62.9163 115.768 60.9014L115.764 60.906ZM122.3 60.2421V59.7303C121.809 59.4998 121.173 59.3477 120.482 59.3477C119.264 59.3477 118.514 59.8456 118.514 60.7539V60.7954C118.514 61.5746 119.15 62.031 120.073 62.031C121.405 62.031 122.3 61.2933 122.3 60.2421Z" fill="#525758"/>
</g>
<defs>
<clipPath id="clip0_238_2411">
<rect width="125" height="66.886" fill="white"/>
</clipPath>
</defs>
</svg>
