<svg width="97" height="51" viewBox="0 0 97 51" fill="none" xmlns="http://www.w3.org/2000/svg">
<g clip-path="url(#clip0_238_2248)">
<path d="M26.7085 35.5423C31.4139 35.5423 35.2304 31.7385 35.2304 27.0487C35.2304 22.359 31.4139 18.5552 26.7085 18.5552C22.0031 18.5552 18.1866 22.359 18.1866 27.0487C18.1866 31.7385 22.0031 35.5423 26.7085 35.5423Z" fill="white"/>
<path d="M8.52189 35.5423C13.2273 35.5423 17.0438 31.7385 17.0438 27.0487C17.0438 22.359 13.2273 18.5552 8.52189 18.5552C3.81651 18.5552 0 22.3555 0 27.0487C0 31.742 3.81651 35.5423 8.52189 35.5423Z" fill="white"/>
<path d="M8.52189 17.5741C13.2273 17.5741 17.0438 13.7703 17.0438 9.08057C17.0438 4.39083 13.2308 0.583496 8.52189 0.583496C3.81298 0.583496 0 4.38731 0 9.08057C0 13.7738 3.81651 17.5741 8.52189 17.5741Z" fill="white"/>
<path d="M40.0663 0.583496H55.9496C59.8613 0.583496 62.9371 1.65574 64.8948 3.60335C66.4609 5.16425 67.2404 7.05913 67.2404 9.40048V9.49892C67.2404 13.3449 65.1875 15.4894 62.7431 16.8534C66.7007 18.3616 69.1451 20.6537 69.1451 25.231V25.3294C69.1451 31.5625 64.0658 34.6808 56.3411 34.6808H40.0663V0.583496ZM59.7555 10.6626C59.7555 8.41964 57.9954 7.15405 54.8209 7.15405H47.396V14.3609H54.3341C57.6603 14.3609 59.759 13.2887 59.759 10.754V10.6555L59.7555 10.6626ZM56.0907 20.601H47.3924V28.0997H56.3376C59.6603 28.0997 61.6638 26.929 61.6638 24.3978V24.2994C61.6638 22.0107 59.9566 20.5975 56.0942 20.5975H56.0907V20.601Z" fill="white"/>
<path d="M74.0763 31.6083C71.586 29.1263 70.0199 25.4736 70.0199 18.7027V18.6043C70.0199 8.08575 74.8099 0 85.0214 0C89.6633 0 92.6932 1.36403 95.7267 3.75109L91.7691 9.54822C89.5187 7.84669 87.7127 6.82016 84.7815 6.82016C79.6494 6.82016 78.1362 11.7384 77.8892 14.709C79.6952 13.4927 81.8468 12.5189 84.9755 12.5189C91.7691 12.5189 96.9965 16.2699 96.9965 23.3784V23.4768C96.9965 30.4411 91.3775 35.2644 83.9491 35.2644C79.5012 35.2644 76.4713 33.9988 74.0798 31.6118H74.0763V31.6083ZM89.5222 23.8143V23.7159C89.5222 20.8437 87.2718 18.7519 83.5611 18.7519C79.8504 18.7519 77.6988 20.798 77.6988 23.6702V23.7686C77.6988 26.6408 79.9492 28.831 83.6599 28.831C87.3706 28.831 89.5222 26.7392 89.5222 23.8143Z" fill="white"/>
<path d="M1.07935 38.0908H3.40382V40.0455H1.07935V38.0908ZM1.13578 40.9068H3.34738V48.6761H1.13578V40.9068Z" fill="white"/>
<path d="M4.84294 40.9068H7.05454V42.0107C7.56247 41.3603 8.21854 40.7627 9.34021 40.7627C11.0121 40.7627 11.9857 41.8666 11.9857 43.6454V48.6762H9.77407V44.3415C9.77407 43.3009 9.28025 42.763 8.43723 42.763C7.59421 42.763 7.05807 43.3009 7.05807 44.3415V48.6762H4.84647V40.9068H4.84294Z" fill="white"/>
<path d="M12.9416 44.8299V44.7982C12.9416 42.5835 14.6452 40.7554 17.0261 40.7554C18.4935 40.7554 19.4106 41.2475 20.1407 42.0596L18.7862 43.5116C18.2924 42.9877 17.7986 42.6538 17.012 42.6538C15.9045 42.6538 15.1249 43.6241 15.1249 44.7736V44.8053C15.1249 45.997 15.8974 46.9498 17.1002 46.9498C17.8409 46.9498 18.3524 46.6298 18.8921 46.1236L20.1831 47.4279C19.4282 48.254 18.557 48.8482 16.9979 48.8482C14.6558 48.8482 12.9416 47.0517 12.9416 44.8334V44.8299Z" fill="white"/>
<path d="M20.4476 44.8299V44.7982C20.4476 42.5659 22.25 40.7554 24.6768 40.7554C27.1036 40.7554 28.8813 42.5342 28.8813 44.7701V44.8018C28.8813 47.0341 27.0789 48.8446 24.6521 48.8446C22.2253 48.8446 20.4476 47.0587 20.4476 44.8299ZM26.6979 44.8299V44.7982C26.6979 43.6557 25.869 42.6538 24.6486 42.6538C23.4281 42.6538 22.6275 43.6241 22.6275 44.7736V44.8053C22.6275 45.9478 23.4564 46.9498 24.6768 46.9498C25.8972 46.9498 26.6979 45.9795 26.6979 44.8299Z" fill="white"/>
<path d="M29.8972 40.907H32.1088V42.4714C32.5603 41.3992 33.2869 40.7031 34.5955 40.7628V43.0655H34.4756C33.0082 43.0655 32.1017 43.9479 32.1017 45.8041V48.6763H29.8901V40.907H29.8936H29.8972Z" fill="white"/>
<path d="M35.3926 40.9068H37.6042V42.0248C38.1439 41.3006 38.8846 40.7627 40.0345 40.7627C41.8511 40.7627 43.5794 42.183 43.5794 44.7774V44.8091C43.5794 47.4036 41.8758 48.8238 40.0345 48.8238C38.8564 48.8238 38.1298 48.286 37.6042 47.6637V50.9964H35.3926V40.9068ZM41.3714 44.8056V44.7739C41.3714 43.4802 40.4966 42.6295 39.4666 42.6295C38.4367 42.6295 37.5795 43.4872 37.5795 44.7739V44.8056C37.5795 46.0993 38.4402 46.9501 39.4666 46.9501C40.4931 46.9501 41.3714 46.1098 41.3714 44.8056Z" fill="white"/>
<path d="M44.2496 44.8299V44.7982C44.2496 42.5659 46.0521 40.7554 48.4788 40.7554C50.9056 40.7554 52.6833 42.5342 52.6833 44.7701V44.8018C52.6833 47.0341 50.8809 48.8446 48.4541 48.8446C46.0274 48.8446 44.2496 47.0587 44.2496 44.8299ZM50.5035 44.8299V44.7982C50.5035 43.6557 49.6746 42.6538 48.4541 42.6538C47.2337 42.6538 46.433 43.6241 46.433 44.7736V44.8053C46.433 45.9478 47.2619 46.9498 48.4824 46.9498C49.7028 46.9498 50.5035 45.9795 50.5035 44.8299Z" fill="white"/>
<path d="M53.6992 40.907H55.9108V42.4714C56.3623 41.3992 57.0889 40.7031 58.3975 40.7628V43.0655H58.2776C56.8102 43.0655 55.9037 43.9479 55.9037 45.8041V48.6763H53.6921V40.907H53.6957H53.6992Z" fill="white"/>
<path d="M58.3658 46.4404V46.4088C58.3658 44.7107 59.6568 43.9303 61.5051 43.9303C62.2916 43.9303 62.8595 44.0569 63.4098 44.2467V44.1201C63.4098 43.2061 62.8454 42.6999 61.7379 42.6999C60.8948 42.6999 60.2952 42.8581 59.5862 43.1217L59.036 41.4378C59.8966 41.0616 60.7396 40.812 62.0624 40.812C63.2722 40.812 64.1399 41.1319 64.6937 41.6839C65.2757 42.2639 65.5367 43.1217 65.5367 44.1623V48.6693H63.4027V47.829C62.8631 48.4232 62.1223 48.8134 61.0465 48.8134C59.5792 48.8134 58.3693 47.9732 58.3693 46.4369L58.3658 46.4404ZM63.438 45.9342V45.5439C63.0606 45.3682 62.5632 45.2521 62.0271 45.2521C61.0818 45.2521 60.4998 45.6318 60.4998 46.3244V46.356C60.4998 46.9502 60.9936 47.2982 61.7096 47.2982C62.7431 47.2982 63.438 46.7357 63.438 45.9342Z" fill="white"/>
<path d="M66.5067 44.8054V44.7738C66.5067 42.1793 68.2104 40.759 70.0516 40.759C71.2297 40.759 71.9564 41.2969 72.4819 41.9191V38.0942H74.6935V48.676H72.4819V47.5581C71.9422 48.2823 71.2015 48.8202 70.0516 48.8202C68.2351 48.8202 66.5067 47.3999 66.5067 44.8054ZM72.5137 44.8054V44.7738C72.5137 43.4801 71.653 42.6293 70.6266 42.6293C69.6001 42.6293 68.7218 43.4695 68.7218 44.7738V44.8054C68.7218 46.0991 69.5966 46.9499 70.6266 46.9499C71.6565 46.9499 72.5137 46.0921 72.5137 44.8054Z" fill="white"/>
<path d="M75.7094 44.8299V44.7982C75.7094 42.5659 77.5118 40.7554 79.9386 40.7554C82.3653 40.7554 84.1431 42.5342 84.1431 44.7701V44.8018C84.1431 47.0341 82.3407 48.8446 79.9139 48.8446C77.4871 48.8446 75.7094 47.0587 75.7094 44.8299ZM81.9668 44.8299V44.7982C81.9668 43.6557 81.1379 42.6538 79.9174 42.6538C78.697 42.6538 77.8963 43.6241 77.8963 44.7736V44.8053C77.8963 45.9478 78.7252 46.9498 79.9456 46.9498C81.1661 46.9498 81.9668 45.9795 81.9668 44.8299Z" fill="white"/>
<path d="M85.1625 40.907H87.3741V42.4714C87.8256 41.3992 88.5522 40.7031 89.8608 40.7628V43.0655H89.7409C88.2735 43.0655 87.367 43.9479 87.367 45.8041V48.6763H85.1554V40.907H85.159H85.1625Z" fill="white"/>
<path d="M89.8326 46.4404V46.4088C89.8326 44.7107 91.1306 43.9303 92.9719 43.9303C93.7584 43.9303 94.3263 44.0569 94.8766 44.2467V44.1201C94.8766 43.2061 94.3122 42.6999 93.2047 42.6999C92.3616 42.6999 91.762 42.8581 91.053 43.1217L90.5028 41.4378C91.3634 41.0616 92.2064 40.812 93.5292 40.812C94.739 40.812 95.6067 41.1319 96.1605 41.6839C96.7425 42.2639 97.0035 43.1217 97.0035 44.1623V48.6693H94.8695V47.829C94.3299 48.4232 93.5891 48.8134 92.5133 48.8134C91.046 48.8134 89.8361 47.9732 89.8361 46.4369L89.8326 46.4404ZM94.9048 45.9342V45.5439C94.5239 45.3682 94.03 45.2521 93.4939 45.2521C92.5486 45.2521 91.9666 45.6318 91.9666 46.3244V46.356C91.9666 46.9502 92.4604 47.2982 93.1764 47.2982C94.2099 47.2982 94.9048 46.7357 94.9048 45.9342Z" fill="white"/>
</g>
<defs>
<clipPath id="clip0_238_2248">
<rect width="97" height="51" fill="white"/>
</clipPath>
</defs>
</svg>
