<svg width="80" height="15" viewBox="0 0 80 15" fill="none" xmlns="http://www.w3.org/2000/svg">
<path d="M20.1779 0.350098H25.9141C27.2749 0.350098 28.3574 0.685293 29.1657 1.35568C29.974 2.02608 30.3781 2.92272 30.3781 4.04353C30.3781 4.78306 30.1864 5.42622 29.8028 5.973C29.4193 6.51979 28.8894 6.93669 28.2172 7.2258C29.0647 7.48557 29.7348 7.92133 30.2276 8.52887C30.7183 9.13851 30.9658 9.85289 30.9658 10.6741C30.9658 11.906 30.5245 12.8885 29.642 13.6197C28.7595 14.3529 27.5987 14.7174 26.1574 14.7174H20.1779V0.350098ZM25.8337 1.7244H21.7325V6.60988H25.8337C26.7492 6.60988 27.4791 6.38781 28.0255 5.94367C28.5719 5.49954 28.8441 4.90666 28.8441 4.16923C28.8441 3.4318 28.5719 2.83892 28.0255 2.3927C27.4811 1.94856 26.7492 1.72649 25.8337 1.72649V1.7244ZM26.0357 13.341C27.0461 13.341 27.8564 13.0938 28.4709 12.6015C29.0832 12.1092 29.3905 11.4514 29.3905 10.6322C29.3905 9.81309 29.0832 9.15527 28.4709 8.66085C27.8585 8.16854 27.0461 7.92133 26.0357 7.92133H21.7325V13.3389H26.0357V13.341Z" fill="white"/>
<path d="M36.3576 14.9011C35.2524 14.9011 34.3535 14.6141 33.6606 14.0379C32.9678 13.4639 32.6194 12.7181 32.6194 11.8005C32.6194 10.8829 32.9823 10.0805 33.7101 9.51281C34.438 8.94507 35.4195 8.66015 36.6587 8.66015C37.1968 8.66015 37.7185 8.72091 38.2237 8.84451C38.7288 8.96812 39.1969 9.1399 39.6278 9.35778V8.00233C39.6278 7.1811 39.3989 6.56309 38.9412 6.14409C38.4835 5.72719 37.8175 5.5177 36.9411 5.5177C36.4422 5.5177 35.9411 5.58892 35.436 5.73348C34.9308 5.87803 34.3761 6.10638 33.7699 6.42063L33.205 5.25163C33.9328 4.89549 34.605 4.63571 35.2256 4.4723C35.8442 4.3089 36.4648 4.2251 37.0834 4.2251C38.3618 4.2251 39.3495 4.53306 40.0423 5.14898C40.7351 5.7649 41.0835 6.64689 41.0835 7.79703V14.7146H39.6299V13.709C39.1721 14.105 38.6711 14.4046 38.1247 14.6015C37.5783 14.8005 36.9906 14.899 36.3576 14.899V14.9011ZM34.0545 11.7607C34.0545 12.3347 34.2937 12.804 34.772 13.1664C35.2504 13.5289 35.8669 13.7111 36.6195 13.7111C37.2257 13.7111 37.7783 13.6148 38.2752 13.4241C38.7742 13.2335 39.2237 12.9318 39.6278 12.5212V10.5917C39.2092 10.3047 38.7618 10.0952 38.2834 9.96532C37.8051 9.83543 37.2772 9.77049 36.6978 9.77049C35.8896 9.77049 35.2463 9.95275 34.7679 10.3152C34.2895 10.6776 34.0504 11.1595 34.0504 11.7628L34.0545 11.7607Z" fill="white"/>
<path d="M45.0857 0V14.7151H43.5908V0.34986L45.0857 0Z" fill="white"/>
<path d="M46.9827 14.7152V13.5253L53.0839 5.78855H47.0445V4.43311H54.9025V5.6021L48.7827 13.3598H54.9643V14.7152H46.9847H46.9827Z" fill="white"/>
<path d="M60.1748 14.9011C59.0696 14.9011 58.1706 14.6141 57.4778 14.0379C56.785 13.4639 56.4365 12.7181 56.4365 11.8005C56.4365 10.8829 56.7994 10.0805 57.5273 9.51281C58.2551 8.94507 59.2366 8.66015 60.4758 8.66015C61.014 8.66015 61.5356 8.72091 62.0408 8.84451C62.546 8.96812 63.014 9.1399 63.445 9.35778V8.00233C63.445 7.1811 63.2161 6.56309 62.7583 6.14409C62.3006 5.72719 61.6346 5.5177 60.7583 5.5177C60.2593 5.5177 59.7583 5.58892 59.2531 5.73348C58.7479 5.87803 58.1933 6.10638 57.5871 6.42063L57.0221 5.25163C57.75 4.89549 58.4221 4.63571 59.0428 4.4723C59.6614 4.3089 60.282 4.2251 60.9006 4.2251C62.1789 4.2251 63.1666 4.53306 63.8594 5.14898C64.5522 5.7649 64.9007 6.64689 64.9007 7.79703V14.7146H63.447V13.709C62.9893 14.105 62.4882 14.4046 61.9418 14.6015C61.3954 14.8005 60.8078 14.899 60.1748 14.899V14.9011ZM57.8716 11.7607C57.8716 12.3347 58.1108 12.804 58.5892 13.1664C59.0675 13.5289 59.684 13.7111 60.4366 13.7111C61.0428 13.7111 61.5954 13.6148 62.0923 13.4241C62.5913 13.2335 63.0408 12.9318 63.445 12.5212V10.5917C63.0264 10.3047 62.579 10.0952 62.1006 9.96532C61.6222 9.83543 61.0944 9.77049 60.515 9.77049C59.7067 9.77049 59.0634 9.95275 58.585 10.3152C58.1067 10.6776 57.8675 11.1595 57.8675 11.7628L57.8716 11.7607Z" fill="white"/>
<path d="M67.4059 14.7153V4.43319H68.9008V5.64409C69.2905 5.179 69.7565 4.82705 70.2946 4.58822C70.8328 4.34939 71.4328 4.22998 72.0926 4.22998C73.237 4.22998 74.1731 4.5987 74.9009 5.33822C75.6288 6.07775 75.9917 7.03515 75.9917 8.21252V14.7195H74.5174V8.52048C74.5174 7.61755 74.2617 6.89897 73.7504 6.36476C73.239 5.83054 72.5524 5.56448 71.6905 5.56448C71.0843 5.56448 70.542 5.70065 70.0637 5.97509C69.5853 6.24953 69.1977 6.6392 68.9028 7.14409V14.7174H67.4079L67.4059 14.7153Z" fill="white"/>
<path d="M79.9898 4.43262H78.4949V14.7147H79.9898V4.43262Z" fill="white"/>
<path d="M80.0001 0.737305H78.4949V2.26663H80.0001V0.737305Z" fill="white"/>
<path d="M14.5736 0.695763C14.788 0.477886 14.6354 0.10498 14.3323 0.10498H0.340215C0.152581 0.10498 0 0.260008 0 0.450651V7.19018C0 7.49814 0.369082 7.65316 0.581458 7.43319L7.18575 0.655958C7.28885 0.549115 7.46823 0.624534 7.46823 0.775372V7.57356V8.03236V14.6567C7.46823 14.9667 7.83732 15.1196 8.05175 14.8997L14.7282 8.10149C14.887 7.94018 14.7736 7.66573 14.5509 7.66573H8.06825C7.93835 7.66573 7.87443 7.50652 7.96515 7.41434L14.5736 0.695763Z" fill="#FF611B"/>
</svg>
