<svg width="41" height="64" viewBox="0 0 41 64" fill="none" xmlns="http://www.w3.org/2000/svg">
<path d="M40.9998 59.9998C40.9998 62.2089 39.2089 63.9998 36.9998 63.9998L0 63.9998L5.59504e-06 4.04508e-06L36.9998 7.2797e-06C39.2089 7.47283e-06 40.9998 1.79087 40.9998 4.00001L40.9998 59.9998Z" fill="#E73C38"/>
<path d="M24.8534 39.3534L24.3534 39.8534C24.2596 39.9471 24.1325 39.9998 23.9999 39.9998C23.8673 39.9998 23.7402 39.9471 23.6464 39.8534L16.1464 32.3534C16.0527 32.2596 16 32.1325 16 31.9999C16 31.8673 16.0527 31.7402 16.1464 31.6464L23.6464 24.1464C23.7402 24.0527 23.8673 24 23.9999 24C24.1325 24 24.2596 24.0527 24.3534 24.1464L24.8534 24.6464C24.9471 24.7402 24.9998 24.8673 24.9998 24.9999C24.9998 25.1325 24.9471 25.2596 24.8534 25.3534L18.2069 31.9999L24.8534 38.6464C24.9471 38.7402 24.9998 38.8673 24.9998 38.9999C24.9998 39.1325 24.9471 39.2596 24.8534 39.3534Z" fill="white"/>
</svg>
