<svg width="41" height="64" viewBox="0 0 41 64" fill="none" xmlns="http://www.w3.org/2000/svg">
<path d="M6.99383e-07 4.00001C3.13124e-07 1.79087 1.79086 7.31627e-06 4 6.93001e-06L40.9998 4.60764e-07L40.9998 63.9998L4.00001 63.9998C1.79087 63.9998 1.0877e-05 62.2089 1.04907e-05 59.9998L6.99383e-07 4.00001Z" fill="#E73C38"/>
<path d="M16.1464 24.6464L16.6464 24.1464C16.7402 24.0527 16.8673 24 16.9999 24C17.1325 24 17.2596 24.0527 17.3534 24.1464L24.8534 31.6464C24.9471 31.7402 24.9998 31.8673 24.9998 31.9999C24.9998 32.1325 24.9471 32.2596 24.8534 32.3534L17.3534 39.8534C17.2596 39.9471 17.1325 39.9998 16.9999 39.9998C16.8673 39.9998 16.7402 39.9471 16.6464 39.8534L16.1464 39.3534C16.0527 39.2596 16 39.1325 16 38.9999C16 38.8673 16.0527 38.7402 16.1464 38.6464L22.7929 31.9999L16.1464 25.3534C16.0527 25.2596 16 25.1325 16 24.9999C16 24.8673 16.0527 24.7402 16.1464 24.6464Z" fill="white"/>
</svg>
